<mxfile host="65bd71144e" modified="2021-01-02T23:57:54.359Z" agent="5.0 (Windows NT 10.0; Win64; x64) AppleWebKit/537.36 (KHTML, like Gecko) Code/1.52.1 Chrome/83.0.4103.122 Electron/9.3.5 Safari/537.36" version="13.10.0" etag="lvEjqG61-3faJhNvja-x" type="embed">
    <diagram id="OSkywqQYmv1veDfpC-55" name="Page-1">
        <mxGraphModel dx="732" dy="368" grid="1" gridSize="10" guides="1" tooltips="1" connect="1" arrows="1" fold="1" page="1" pageScale="1" pageWidth="827" pageHeight="1169" math="0" shadow="0">
            <root>
                <mxCell id="0"/>
                <mxCell id="1" parent="0"/>
                <mxCell id="15" value="" style="html=1;points=[];perimeter=orthogonalPerimeter;labelPosition=center;verticalLabelPosition=middle;align=center;verticalAlign=middle;labelBorderColor=none;" vertex="1" parent="1">
                    <mxGeometry x="70" y="40" width="20" height="320" as="geometry"/>
                </mxCell>
                <mxCell id="16" value="クライアント" style="text;html=1;align=center;verticalAlign=middle;resizable=0;points=[];autosize=1;rotation=90;" vertex="1" parent="1">
                    <mxGeometry x="35" y="110" width="90" height="20" as="geometry"/>
                </mxCell>
                <mxCell id="17" value="" style="html=1;points=[];perimeter=orthogonalPerimeter;labelPosition=center;verticalLabelPosition=middle;align=center;verticalAlign=middle;labelBorderColor=none;" vertex="1" parent="1">
                    <mxGeometry x="335" y="40" width="20" height="320" as="geometry"/>
                </mxCell>
                <mxCell id="18" value="サーバ" style="text;html=1;align=center;verticalAlign=middle;resizable=0;points=[];autosize=1;rotation=90;" vertex="1" parent="1">
                    <mxGeometry x="320" y="110" width="50" height="20" as="geometry"/>
                </mxCell>
                <mxCell id="19" value="" style="edgeStyle=orthogonalEdgeStyle;html=1;endArrow=block;elbow=vertical;startArrow=none;endFill=1;strokeColor=#545B64;rounded=0;" edge="1" parent="1">
                    <mxGeometry width="100" relative="1" as="geometry">
                        <mxPoint x="90" y="60" as="sourcePoint"/>
                        <mxPoint x="300" y="60" as="targetPoint"/>
                    </mxGeometry>
                </mxCell>
                <mxCell id="20" value="GET /index.html HTTP/1.1" style="text;html=1;align=left;verticalAlign=middle;resizable=0;points=[];autosize=1;fillColor=#CCCCCC;" vertex="1" parent="1">
                    <mxGeometry x="100" y="30" width="160" height="20" as="geometry"/>
                </mxCell>
                <mxCell id="21" value="" style="edgeStyle=orthogonalEdgeStyle;html=1;endArrow=none;elbow=vertical;startArrow=block;startFill=1;strokeColor=#545B64;rounded=0;" edge="1" parent="1">
                    <mxGeometry width="100" relative="1" as="geometry">
                        <mxPoint x="120" y="100" as="sourcePoint"/>
                        <mxPoint x="335" y="100" as="targetPoint"/>
                    </mxGeometry>
                </mxCell>
                <mxCell id="22" value="HTTP/1.1 200 OK&lt;br&gt;Set-Cookie: session_id=1234" style="text;html=1;align=left;verticalAlign=middle;resizable=0;points=[];autosize=1;fillColor=#CCCCCC;" vertex="1" parent="1">
                    <mxGeometry x="160" y="110" width="170" height="30" as="geometry"/>
                </mxCell>
                <mxCell id="24" value="" style="edgeStyle=orthogonalEdgeStyle;html=1;endArrow=block;elbow=vertical;startArrow=none;endFill=1;strokeColor=#545B64;rounded=0;" edge="1" parent="1">
                    <mxGeometry width="100" relative="1" as="geometry">
                        <mxPoint x="90" y="160" as="sourcePoint"/>
                        <mxPoint x="91" y="193" as="targetPoint"/>
                        <Array as="points">
                            <mxPoint x="130" y="160"/>
                            <mxPoint x="130" y="193"/>
                        </Array>
                    </mxGeometry>
                </mxCell>
                <mxCell id="25" value="Cookieの保存" style="text;html=1;align=left;verticalAlign=middle;resizable=0;points=[];autosize=1;fillColor=#CCCCCC;" vertex="1" parent="1">
                    <mxGeometry x="140" y="165" width="90" height="20" as="geometry"/>
                </mxCell>
                <mxCell id="26" value="" style="edgeStyle=orthogonalEdgeStyle;html=1;endArrow=block;elbow=vertical;startArrow=none;endFill=1;strokeColor=#545B64;rounded=0;" edge="1" parent="1">
                    <mxGeometry width="100" relative="1" as="geometry">
                        <mxPoint x="90" y="260" as="sourcePoint"/>
                        <mxPoint x="300" y="260" as="targetPoint"/>
                    </mxGeometry>
                </mxCell>
                <mxCell id="27" value="GET /index.html HTTP/1.1&lt;br&gt;Cookie: session_id=1234" style="text;html=1;align=left;verticalAlign=middle;resizable=0;points=[];autosize=1;fillColor=#CCCCCC;" vertex="1" parent="1">
                    <mxGeometry x="100" y="215" width="160" height="30" as="geometry"/>
                </mxCell>
                <mxCell id="28" value="" style="edgeStyle=orthogonalEdgeStyle;html=1;endArrow=none;elbow=vertical;startArrow=block;startFill=1;strokeColor=#545B64;rounded=0;" edge="1" parent="1">
                    <mxGeometry width="100" relative="1" as="geometry">
                        <mxPoint x="335" y="340" as="sourcePoint"/>
                        <mxPoint x="335" y="300" as="targetPoint"/>
                        <Array as="points">
                            <mxPoint x="335" y="340"/>
                            <mxPoint x="290" y="340"/>
                            <mxPoint x="290" y="300"/>
                        </Array>
                    </mxGeometry>
                </mxCell>
                <mxCell id="29" value="サーバは依然と同じ&lt;br&gt;クライアントと認識" style="text;html=1;align=left;verticalAlign=middle;resizable=0;points=[];autosize=1;fillColor=#CCCCCC;" vertex="1" parent="1">
                    <mxGeometry x="160" y="305" width="120" height="30" as="geometry"/>
                </mxCell>
            </root>
        </mxGraphModel>
    </diagram>
</mxfile>